<svg width="250" height="250" viewBox="0 0 250 250" fill="none" xmlns="http://www.w3.org/2000/svg">
<g clip-path="url(#clip0_814_640)">
<path d="M105.302 69.0865C103.47 71.2417 101.71 73.3969 100.086 75.4587L99.7701 75.2072C99.7701 74.4314 99.8635 73.6555 99.9425 72.8868C100.148 70.9128 100.472 68.9529 100.912 67.0176C101.013 66.565 101.121 66.1124 101.236 65.667L105.302 69.0865Z" fill="#0D1F3D"/>
<path d="M100.108 75.4579C99.9928 75.6016 99.8779 75.7525 99.7557 75.8961C99.7557 75.6662 99.7557 75.4364 99.7917 75.1777L100.108 75.4579Z" fill="#0D1F3D"/>
<path d="M118.319 64C111.921 71.4673 106.029 79.3536 100.682 87.6063C100.905 88.7486 101.171 89.8764 101.48 90.9971C101.789 92.1178 102.069 93.0158 102.414 94.0144C102.838 95.25 103.319 96.4713 103.851 97.6638C104.239 96.9693 104.641 96.2725 105.057 95.5733C109.849 87.4842 115.991 79.0503 124.375 69.0862L118.319 64Z" fill="#0D1F3D"/>
<path d="M178.994 127.886C171.567 132.404 163.22 135.198 154.569 136.061C152.659 136.255 150.741 136.351 148.822 136.349C148.06 136.349 147.292 136.349 146.523 136.299C142.557 136.144 138.616 135.585 134.763 134.632C134.045 134.452 133.326 134.258 132.608 134.05C125.61 132.066 119.049 128.781 113.269 124.366C110.923 122.579 108.721 120.612 106.681 118.482C103.673 115.344 101.023 111.882 98.7787 108.159L98.6494 107.944C96.9143 105.053 95.4382 102.014 94.2385 98.8632C92.8282 95.1922 91.7979 91.3864 91.1638 87.5054C90.4765 83.3814 90.2356 79.1954 90.4454 75.0198C91.0319 62.7569 95.4771 50.9927 103.147 41.4062L107.629 44.9982C102.651 51.2056 99.1529 58.4654 97.3994 66.2267C96.9302 68.2972 96.5848 70.3938 96.3649 72.5054C96.0979 75.1666 96.0283 77.8439 96.1566 80.5154C96.3448 84.3811 96.9592 88.2142 97.9885 91.9451C98.9058 95.2696 100.152 98.4944 101.71 101.571C102.318 102.793 102.981 103.99 103.7 105.163C105.18 107.628 106.862 109.966 108.728 112.153C113.538 117.823 119.515 122.388 126.25 125.537C128.662 126.682 131.157 127.643 133.714 128.411C134.519 128.648 135.338 128.87 136.157 129.072C139.874 129.988 143.68 130.499 147.507 130.594C150.223 130.673 152.94 130.531 155.632 130.171C162.848 129.216 169.787 126.769 176.006 122.987L178.994 127.886Z" fill="#DC4847"/>
<path d="M138.556 64C124.31 80.9684 115.769 94.2874 110.201 108.282C110.618 108.813 111.042 109.33 111.473 109.833L111.667 110.056C113.076 111.704 114.598 113.252 116.221 114.69C116.523 113.849 116.832 113.016 117.155 112.182C122.385 98.6552 130.596 85.7672 144.605 69.079L138.556 64Z" fill="#0D1F3D"/>
<path d="M159.943 64C141.853 85.5517 132.414 102.075 127.356 121.098C127.277 121.385 127.205 121.68 127.134 121.974C127.349 122.089 127.572 122.197 127.787 122.297C129.972 123.323 132.229 124.188 134.54 124.884C134.684 124.295 134.835 123.705 134.993 123.124C139.792 105.085 148.484 89.9339 165.999 69.0862L159.943 64Z" fill="#0D1F3D"/>
<path d="M188.29 69.0862C169.964 90.8966 161.027 106.989 156.466 126.399L156.422 126.586L154.44 126.672L147.608 126.981C152.464 106.148 162.981 86.9239 182.234 64L188.29 69.0862Z" fill="#0D1F3D"/>
<path d="M30.2802 214.028H21.3937V222.915H30.2802V214.028Z" fill="#0D1F3D"/>
<path d="M68.2902 226.543H59.4037V235.429H68.2902V226.543Z" fill="#0D1F3D"/>
<path d="M78.556 215.444H69.6695V224.331H78.556V215.444Z" fill="#0D1F3D"/>
<path d="M86.8032 230.982H77.9167V239.869H86.8032V230.982Z" fill="#0D1F3D"/>
<path d="M40.6753 200.731H31.7888V209.618H40.6753V200.731Z" fill="#0D1F3D"/>
<path d="M131.43 217.643H122.543V226.529H131.43V217.643Z" fill="#0D1F3D"/>
<path d="M141.818 204.353H132.931V213.239H141.818V204.353Z" fill="#0D1F3D"/>
<path d="M170.903 156.62L191.978 143.867L240.426 223.926C242.118 226.722 242.63 230.075 241.849 233.248C241.069 236.421 239.059 239.154 236.264 240.846C233.468 242.535 230.117 243.045 226.945 242.264C223.773 241.483 221.042 239.474 219.351 236.68L170.903 156.62Z" fill="#DC4847"/>
<path d="M156.466 126.399L156.422 126.586L154.44 126.672C154.684 126.672 154.923 126.644 155.158 126.586C155.589 126.529 156.034 126.471 156.466 126.399Z" fill="white"/>
<path d="M247.637 210.243L200.338 132.082C205.461 127.227 209.861 121.663 213.405 115.559C219.018 105.95 222.417 95.2093 223.354 84.1202C224.291 73.0311 222.743 61.8727 218.822 51.4577C214.901 41.0428 208.706 31.6337 200.688 23.916C192.67 16.1982 183.032 10.3662 172.475 6.84469C161.918 3.32322 150.709 2.20102 139.664 3.55985C128.618 4.91869 118.015 8.72433 108.627 14.6995C99.2384 20.6747 91.3011 28.669 85.3931 38.0999C79.4852 47.5308 75.7554 58.1609 74.4756 69.2157C74.4756 69.2588 74.4756 69.3019 74.4756 69.345C59.3463 88.1668 51.1422 103.174 46.4583 120.487C41.5086 138.72 40.5891 159.611 39.9066 186.974H28.7356C30.1724 129.316 32.4856 108.813 65.8621 69.0863L59.8132 64.0001C24.8132 105.667 22.2989 128.375 20.8333 186.974H0V194.877H182.802V186.96H151.193C151.509 174.367 151.911 162.951 152.716 152.571C159.44 152.231 166.087 150.974 172.471 148.835L175.503 153.864L219.828 227.104C222.044 230.775 225.622 233.421 229.782 234.465C233.941 235.51 238.345 234.867 242.033 232.678L242.17 232.599C245.859 230.364 248.51 226.755 249.541 222.566C250.571 218.376 249.897 213.949 247.665 210.257L247.637 210.243ZM60.2945 186.96H47.7802C49.0374 136.881 51.0417 114.402 74.102 82.7932C74.396 87.4876 75.1418 92.1428 76.329 96.6941C62.6796 122.226 61.3218 145.911 60.2945 186.967V186.96ZM79.3391 186.96H68.1968C69.1236 149.956 70.4095 128.339 79.921 107.175C81.3152 110.435 82.938 113.592 84.7773 116.622C85.2802 117.456 85.8046 118.275 86.3362 119.086C80.9627 137.958 80.0431 158.72 79.3391 186.96ZM99.5546 186.96H87.2414C87.9023 160.66 88.865 142.47 92.3851 127.046C95.5206 130.651 98.9996 133.943 102.773 136.874C100.697 150.947 100.079 166.938 99.5546 186.96ZM120.934 186.96H107.457C107.902 169.137 108.441 154.632 110.043 141.895C114.096 144.339 118.373 146.391 122.816 148.023C121.767 159.539 121.329 172.312 120.963 186.96H120.934ZM143.204 186.96H128.836C129.181 173.239 129.555 161.213 130.532 150.408C135.181 151.579 139.932 152.3 144.72 152.563C143.944 163.016 143.57 174.424 143.254 186.96H143.204ZM153.434 144.661C150.784 144.844 148.126 144.866 145.474 144.726C141.19 144.511 136.937 143.885 132.773 142.858C132.306 142.743 131.846 142.628 131.386 142.499C124.25 140.587 117.479 137.512 111.343 133.397C108.887 131.747 106.546 129.93 104.339 127.958C100.855 124.865 97.7076 121.412 94.9497 117.657C93.7356 116.019 92.6006 114.309 91.5302 112.542C90.8621 111.443 90.2299 110.322 89.6336 109.194C87.6592 105.491 86.0404 101.608 84.7989 97.5993C83.6736 93.9644 82.866 90.2387 82.3851 86.4642C81.7953 81.8301 81.6942 77.1468 82.0833 72.4915C82.1192 72.0748 82.1552 71.6582 82.2055 71.2415C82.2558 70.8248 82.2773 70.5231 82.3204 70.1567C83.8152 57.5708 88.8592 45.6696 96.8636 35.8426C104.868 26.0156 115.503 18.6681 127.526 14.658C139.549 10.6478 152.465 10.1404 164.766 13.1949C177.067 16.2495 188.245 22.74 196.996 31.9088C205.746 41.0775 211.708 52.5463 214.186 64.9762C216.664 77.4061 215.554 90.2843 210.988 102.108C206.421 113.931 198.586 124.211 188.396 131.748C178.207 139.286 166.083 143.769 153.441 144.675L153.434 144.661ZM238.039 225.839C237.098 226.408 236.055 226.786 234.968 226.952C233.881 227.118 232.773 227.068 231.705 226.805C230.638 226.542 229.633 226.072 228.747 225.42C227.862 224.769 227.113 223.949 226.545 223.009L182.22 149.776L180.137 146.335L187.823 141.701L188.032 141.579L194.447 137.693L240.855 214.374C242.002 216.274 242.348 218.551 241.818 220.706C241.287 222.862 239.923 224.718 238.024 225.868L238.039 225.839Z" fill="#0D1F3D"/>
</g>
<defs>
<clipPath id="clip0_814_640">
<rect width="250" height="250" fill="white"/>
</clipPath>
</defs>
</svg>
