<svg width="250" height="250" viewBox="0 0 250 250" fill="none" xmlns="http://www.w3.org/2000/svg">
<g clip-path="url(#clip0_815_654)">
<path d="M228.537 195.01H145.563C145.563 204.768 133.72 212.684 123.954 212.684C114.188 212.684 102.564 204.768 102.564 195.01H0V239.566H228.317L228.537 195.01Z" fill="#DC4847"/>
<path d="M37.4629 212.75H28.3799V221.833H37.4629V212.75Z" fill="white"/>
<path d="M79.5445 215.342H70.4614V224.425H79.5445V215.342Z" fill="#0D1F3D"/>
<path d="M90.0373 203.997H80.9543V213.08H90.0373V203.997Z" fill="#0D1F3D"/>
<path d="M98.4668 219.888H89.3838V228.971H98.4668V219.888Z" fill="white"/>
<path d="M48.0879 199.158H39.0049V208.241H48.0879V199.158Z" fill="#0D1F3D"/>
<path d="M170.801 216.443H161.718V225.526H170.801V216.443Z" fill="#0D1F3D"/>
<path d="M181.426 202.859H172.343V211.942H181.426V202.859Z" fill="white"/>
<path d="M250 62.3476L243.817 57.1489C208.043 99.7371 205.473 122.948 203.975 182.836H189.29C190.758 123.91 193.123 102.953 227.237 62.3476L221.055 57.1489C185.281 99.7371 182.711 122.948 181.213 182.836H167.408C168.877 123.91 171.241 102.953 205.356 62.3476L199.173 57.1489C163.399 99.7371 160.829 122.948 159.331 182.836H133.345V186.874C133.345 189.394 132.344 191.811 130.562 193.593C128.78 195.375 126.363 196.376 123.844 196.376C121.324 196.376 118.907 195.375 117.125 193.593C115.343 191.811 114.342 189.394 114.342 186.874V182.828H82.6505C84.119 123.902 86.4834 102.946 120.591 62.3403L114.408 57.1416C78.6413 99.7298 76.064 122.94 74.5661 182.828H63.1847C64.6533 123.902 67.0177 102.946 101.132 62.3403L94.9423 57.1416C59.1756 99.7298 56.6056 122.94 55.1077 182.828H42.3092C43.7777 123.902 46.1421 102.946 80.2567 62.3403L74.0814 57.1489C38.3074 99.7371 35.7374 122.948 34.2394 182.836H22.8434C24.312 123.91 26.6837 102.961 60.791 62.3476L54.6083 57.1489C18.8343 99.7371 16.2643 122.948 14.7664 182.836H0.08078V190.913H106.735C107.644 194.767 109.829 198.201 112.934 200.659C116.039 203.117 119.883 204.454 123.844 204.454C127.804 204.454 131.648 203.117 134.753 200.659C137.858 198.201 140.043 194.767 140.952 190.913H228.486V182.828H212.052C213.528 123.91 215.885 102.953 250 62.3476Z" fill="#0D1F3D"/>
<path d="M112.205 158.92C112.205 167.129 117.911 173.818 124.923 173.818C131.935 173.818 137.648 167.129 137.648 158.92C137.648 152.803 131.561 143.353 129.02 139.674C130.893 92.8274 136.502 72.1794 166.424 36.5522L160.242 31.3535C128.756 68.8017 122.889 90.4483 120.95 139.498C118.491 143.045 112.205 152.722 112.205 158.92ZM124.923 165.741C122.404 165.741 120.282 162.613 120.282 158.92C120.282 156.717 122.485 152.26 124.923 148.236C127.346 152.26 129.571 156.732 129.571 158.92C129.571 162.613 127.441 165.741 124.923 165.741Z" fill="#0D1F3D"/>
<path d="M125.914 24.5909L122.544 18.0484C132.954 12.7576 144.467 10 156.144 10C167.822 10 179.335 12.7576 189.745 18.0484L186.426 24.5909C177.049 19.8274 166.68 17.3446 156.163 17.3446C145.645 17.3446 135.276 19.8274 125.899 24.5909H125.914Z" fill="#DC4847"/>
</g>
<defs>
<clipPath id="clip0_815_654">
<rect width="250" height="250" fill="white"/>
</clipPath>
</defs>
</svg>
