<svg width="24" height="24" viewBox="0 0 24 24" fill="none" xmlns="http://www.w3.org/2000/svg">
<path d="M12 2.98198C14.9371 2.98198 15.285 2.9932 16.4449 3.04612C17.5174 3.09503 18.0999 3.27423 18.4875 3.42487C19.0009 3.62441 19.3674 3.86278 19.7523 4.24768C20.1372 4.63263 20.3756 4.99906 20.5751 5.51251C20.7258 5.90013 20.905 6.48257 20.9539 7.55506C21.0068 8.71496 21.018 9.06288 21.018 12C21.018 14.9371 21.0068 15.285 20.9539 16.4449C20.905 17.5174 20.7258 18.0999 20.5751 18.4875C20.3756 19.0009 20.1372 19.3674 19.7523 19.7523C19.3674 20.1372 19.0009 20.3756 18.4875 20.5751C18.0999 20.7258 17.5174 20.905 16.4449 20.9539C15.2852 21.0068 14.9373 21.018 12 21.018C9.06266 21.018 8.71483 21.0068 7.55506 20.9539C6.48257 20.905 5.90013 20.7258 5.51251 20.5751C4.99906 20.3756 4.63263 20.1372 4.24773 19.7523C3.86282 19.3674 3.62442 19.0009 3.42487 18.4875C3.27423 18.0999 3.09503 17.5174 3.04612 16.4449C2.9932 15.285 2.98198 14.9371 2.98198 12C2.98198 9.06288 2.9932 8.71496 3.04612 7.55506C3.09503 6.48257 3.27423 5.90013 3.42487 5.51251C3.62442 4.99906 3.86278 4.63263 4.24773 4.24773C4.63263 3.86278 4.99906 3.62441 5.51251 3.42487C5.90013 3.27423 6.48257 3.09503 7.55506 3.04612C8.71496 2.9932 9.06288 2.98198 12 2.98198ZM12 1C9.01258 1 8.63798 1.01266 7.46471 1.0662C6.29389 1.1196 5.49426 1.30556 4.79458 1.57746C4.07123 1.85858 3.45779 2.2347 2.84623 2.84623C2.2347 3.45779 1.85858 4.07123 1.57751 4.79458C1.30556 5.49426 1.1196 6.29389 1.0662 7.46471C1.01266 8.63798 1 9.01258 1 12C1 14.9874 1.01266 15.362 1.0662 16.5353C1.1196 17.7061 1.30556 18.5057 1.57751 19.2054C1.85858 19.9288 2.2347 20.5422 2.84623 21.1538C3.45779 21.7653 4.07123 22.1414 4.79458 22.4225C5.49426 22.6944 6.29389 22.8804 7.46471 22.9338C8.63798 22.9873 9.01258 23 12 23C14.9874 23 15.362 22.9873 16.5353 22.9338C17.7061 22.8804 18.5057 22.6944 19.2054 22.4225C19.9288 22.1414 20.5422 21.7653 21.1538 21.1538C21.7653 20.5422 22.1414 19.9288 22.4225 19.2054C22.6944 18.5057 22.8804 17.7061 22.9338 16.5353C22.9873 15.362 23 14.9874 23 12C23 9.01258 22.9873 8.63798 22.9338 7.46471C22.8804 6.29389 22.6944 5.49426 22.4225 4.79458C22.1414 4.07123 21.7653 3.45779 21.1538 2.84623C20.5422 2.2347 19.9288 1.85858 19.2054 1.57746C18.5057 1.30556 17.7061 1.1196 16.5353 1.0662C15.362 1.01266 14.9874 1 12 1Z" fill="#F5333F"/>
<path d="M12.1622 6C8.75887 6 6 8.75886 6 12.1621C6 15.5654 8.75887 18.3243 12.1622 18.3243C15.5654 18.3243 18.3243 15.5654 18.3243 12.1621C18.3243 8.75886 15.5654 6 12.1622 6ZM12.1622 16.1621C9.95301 16.1621 8.16216 14.3713 8.16216 12.1621C8.16216 9.953 9.95301 8.16215 12.1622 8.16215C14.3713 8.16215 16.1622 9.953 16.1622 12.1621C16.1622 14.3713 14.3713 16.1621 12.1622 16.1621Z" fill="#F5333F"/>
<path d="M19.8508 5.59627C19.8508 6.39152 19.2061 7.03625 18.4108 7.03625C17.6155 7.03625 16.9708 6.39152 16.9708 5.59627C16.9708 4.80098 17.6155 4.15625 18.4108 4.15625C19.2061 4.15625 19.8508 4.80098 19.8508 5.59627Z" fill="#F5333F"/>
</svg>
