<svg width="250" height="250" viewBox="0 0 250 250" fill="none" xmlns="http://www.w3.org/2000/svg">
<g clip-path="url(#clip0_816_679)">
<path d="M245.741 203.08H5V250.008H245.509L245.741 203.08Z" fill="#DC4847"/>
<path d="M44.4635 221.76H34.8954V231.328H44.4635V221.76Z" fill="white"/>
<path d="M88.7923 224.49H79.2242V234.058H88.7923V224.49Z" fill="#0D1F3D"/>
<path d="M99.8454 212.548H90.2773V222.116H99.8454V212.548Z" fill="#0D1F3D"/>
<path d="M108.725 229.278H99.157V238.846H108.725V229.278Z" fill="white"/>
<path d="M55.6559 207.442H46.0878V217.01H55.6559V207.442Z" fill="#0D1F3D"/>
<path d="M184.922 225.658H175.354V235.226H184.922V225.658Z" fill="#0D1F3D"/>
<path d="M196.114 211.341H186.546V220.909H196.114V211.341Z" fill="white"/>
<path d="M203.416 184.06C204.619 179.997 207.177 176.467 210.664 174.059L213.154 172.334C218.209 168.812 221.912 163.672 223.65 157.761L224.501 154.853C225.7 150.796 228.246 147.268 231.718 144.852L236.924 141.255C236.098 138.506 235.219 135.67 234.286 132.747L226.907 137.828C221.832 141.352 218.114 146.505 216.372 152.432L215.521 155.34C214.326 159.399 211.779 162.928 208.304 165.341L205.783 167.043C200.711 170.568 196.996 175.72 195.256 181.647L193.554 187.448H181.549L183.522 180.718C185.171 175.104 188.692 170.224 193.5 166.888L196.741 164.645C203.148 160.197 207.84 153.69 210.037 146.205L211.159 142.4C212.81 136.785 216.33 131.902 221.137 128.562L230.774 121.925C229.846 119.182 228.877 116.403 227.866 113.587L216.341 121.57C209.935 126.02 205.243 132.526 203.045 140.01L201.9 143.838C200.251 149.455 196.73 154.338 191.922 157.676L188.658 159.935C182.25 164.384 177.556 170.891 175.354 178.375L172.685 187.494H160.766L164.068 176.201C166.351 168.442 171.217 161.695 177.86 157.081L182.191 154.079C190.435 148.356 196.472 139.985 199.301 130.356L200.786 125.298C203.069 117.538 207.935 110.792 214.577 106.177L222.877 100.43C221.81 97.7332 220.711 95.044 219.582 92.3626L209.728 99.1848C201.486 104.91 195.449 113.28 192.618 122.908L191.141 127.966C188.858 135.726 183.992 142.472 177.349 147.087L173.018 150.088C164.773 155.812 158.734 164.183 155.9 173.811L151.878 187.471H141.397L145.706 172.775C148.47 163.375 154.365 155.204 162.413 149.616L167.565 146.043C177.21 139.343 184.276 129.548 187.59 118.282L189.346 112.272C192.098 102.867 197.982 94.6848 206.023 89.083L215.304 82.663C214.088 80.0331 212.842 77.4548 211.569 74.9281L201.188 82.1215C191.545 88.8229 184.48 98.6171 181.163 109.882L179.407 115.892C176.639 125.279 170.747 133.439 162.707 139.02L157.556 142.585C147.91 149.286 140.847 159.085 137.538 170.354L132.541 187.471H121.596L126.631 170.269C129.907 159.094 136.905 149.375 146.464 142.725L152.505 138.54C163.681 130.786 171.869 119.443 175.709 106.394L177.767 99.3472C181.056 88.1687 188.067 78.4502 197.638 71.8032L206.618 65.6152C205.185 63.0833 203.723 60.6443 202.232 58.298L192.796 64.8417C181.617 72.5927 173.428 83.937 169.591 96.988L167.526 104.035C164.242 115.214 157.233 124.933 147.663 131.579L141.622 135.763C130.446 143.517 122.258 154.86 118.417 167.909L112.685 187.502H101.663L107.302 168.219C110.877 156.064 118.5 145.497 128.906 138.269L135.434 133.744C147.458 125.406 156.264 113.201 160.387 99.1616L162.614 91.5504C166.188 79.3907 173.814 68.8195 184.226 61.5931L198.056 52.0173C196.331 49.6272 194.575 47.3763 192.78 45.3188L179.376 54.6007C167.369 62.9395 158.575 75.1343 154.454 89.1603L152.226 96.7714C148.651 108.926 141.028 119.493 130.623 126.721L124.033 131.246C112.025 139.581 103.231 151.774 99.1107 165.798L92.7603 187.456H83.6176L90.1536 165.133C94.1475 151.549 102.665 139.74 114.294 131.664L121.534 126.651C134.764 117.462 144.456 104.026 149.001 88.5725L151.468 80.1337C155.464 66.5493 163.981 54.7379 175.609 46.657L186.631 39.0226C184.458 36.9419 182.447 34.8767 180.606 32.8347L170.767 39.6491C157.539 48.8403 147.848 62.2754 143.3 77.7281L140.833 86.1669C136.839 99.7521 128.321 111.564 116.692 119.644L109.452 124.656C96.2242 133.842 86.5353 147.276 81.9933 162.727L74.7534 187.479H62.045L69.4241 162.278C73.8169 147.338 83.1866 134.35 95.978 125.468L103.922 119.984C118.311 109.989 128.849 95.3733 133.786 78.5635L136.493 69.3357C140.886 54.3976 150.252 41.4095 163.04 32.5253L174.077 24.8832C172.291 22.4622 170.728 20.103 169.351 17.8058L158.198 25.5407C143.807 35.532 133.266 50.145 128.325 66.9534L125.58 76.1734C121.187 91.1135 111.817 104.102 99.0256 112.984L91.1128 118.468C76.7263 128.462 66.1889 143.074 61.2483 159.881L53.1808 187.471H40.0314L48.2304 159.416C53.0153 143.139 63.223 128.988 77.159 119.311L85.737 113.371C101.274 102.582 112.652 86.8033 117.984 68.6551L120.939 58.6538C125.723 42.3699 135.934 28.2125 149.875 18.5328L164.571 8.37691C163.425 5.65467 162.472 2.85552 161.717 0L145.033 11.5714C129.494 22.3598 118.113 38.1381 112.778 56.2869L109.854 66.2882C105.066 82.5679 94.8558 96.7214 80.9181 106.401L72.3401 112.342C56.8076 123.131 45.4297 138.906 40.0933 157.05L31.2136 187.471H5.06189V195.979H37.2778L37.533 196.049V195.979H59.2604L59.5156 196.049V195.979H80.8099L81.0651 196.049V195.979H98.8554L99.1107 196.049V195.979H118.773L119.028 196.049V195.979H245.741V187.471H202.426L203.416 184.06Z" fill="#0D1F3D"/>
<path d="M126.059 87.9462C140.793 87.9462 152.737 76.0022 152.737 61.2685C152.737 46.5348 140.793 34.5908 126.059 34.5908C111.325 34.5908 99.3813 46.5348 99.3813 61.2685C99.3813 76.0022 111.325 87.9462 126.059 87.9462Z" fill="#DC4847"/>
<path d="M126.059 89.8799C120.399 89.8799 114.865 88.2015 110.159 85.0567C105.453 81.912 101.785 77.4423 99.6184 72.2129C97.4523 66.9834 96.8855 61.229 97.9898 55.6775C99.0941 50.1259 101.82 45.0264 105.822 41.024C109.825 37.0215 114.924 34.2958 120.476 33.1915C126.027 32.0872 131.782 32.654 137.011 34.8201C142.241 36.9862 146.71 40.6544 149.855 45.3608C153 50.0672 154.678 55.6004 154.678 61.2608C154.678 68.8511 151.663 76.1304 146.296 81.4976C140.929 86.8647 133.649 89.8799 126.059 89.8799V89.8799ZM126.059 36.5091C121.164 36.5091 116.378 37.9607 112.308 40.6805C108.237 43.4002 105.065 47.2659 103.191 51.7887C101.318 56.3115 100.828 61.2882 101.783 66.0896C102.738 70.891 105.095 75.3013 108.557 78.7629C112.019 82.2245 116.429 84.5818 121.23 85.5369C126.032 86.4919 131.008 86.0018 135.531 84.1284C140.054 82.255 143.92 79.0825 146.639 75.0121C149.359 70.9417 150.811 66.1562 150.811 61.2608C150.807 54.6989 148.197 48.4072 143.556 43.7687C138.914 39.1302 132.621 36.5245 126.059 36.5245V36.5091Z" fill="white"/>
<path d="M122.486 31.3105C117.339 31.3105 112.308 32.8366 108.029 35.6957C103.75 38.5549 100.415 42.6187 98.446 47.3733C96.4766 52.1278 95.9613 57.3596 96.9653 62.4071C97.9692 67.4545 100.447 72.0909 104.086 75.7299C107.725 79.3689 112.362 81.847 117.409 82.851C122.457 83.855 127.688 83.3397 132.443 81.3703C137.198 79.4009 141.261 76.0658 144.121 71.7868C146.98 67.5078 148.506 62.4771 148.506 57.3308C148.498 50.4323 145.754 43.8187 140.876 38.9407C135.998 34.0628 129.384 31.3187 122.486 31.3105V31.3105ZM122.486 76.3819C118.716 76.3819 115.031 75.2639 111.896 73.1693C108.762 71.0748 106.319 68.0977 104.877 64.6148C103.434 61.1318 103.057 57.2993 103.793 53.602C104.529 49.9047 106.345 46.5088 109.012 43.8437C111.678 41.1786 115.075 39.364 118.772 38.6295C122.47 37.895 126.302 38.2735 129.784 39.7172C133.267 41.1609 136.243 43.6049 138.336 46.7402C140.429 49.8754 141.546 53.561 141.544 57.3308C141.536 62.3823 139.525 67.2244 135.953 70.7956C132.38 74.3668 127.537 76.3757 122.486 76.3819V76.3819Z" fill="#0D1F3D"/>
<path d="M125.966 53.8427V41.8613H119.005V53.8427H107.023V60.8041H119.005V72.7855H125.966V60.8041H137.948V53.8427H125.966Z" fill="#0D1F3D"/>
<path d="M62.9732 142.647C77.7069 142.647 89.6509 130.703 89.6509 115.97C89.6509 101.236 77.7069 89.292 62.9732 89.292C48.2395 89.292 36.2955 101.236 36.2955 115.97C36.2955 130.703 48.2395 142.647 62.9732 142.647Z" fill="#DC4847"/>
<path d="M62.9731 144.612C57.3128 144.612 51.7796 142.934 47.0732 139.789C42.3668 136.644 38.6986 132.175 36.5325 126.945C34.3663 121.716 33.7996 115.961 34.9039 110.41C36.0081 104.858 38.7338 99.7589 42.7363 95.7564C46.7388 91.7539 51.8382 89.0282 57.3898 87.9239C62.9414 86.8197 68.6957 87.3864 73.9252 89.5525C79.1547 91.7187 83.6244 95.3869 86.7691 100.093C89.9138 104.8 91.5923 110.333 91.5923 115.993C91.5923 123.583 88.5771 130.863 83.2099 136.23C77.8428 141.597 70.5634 144.612 62.9731 144.612V144.612ZM62.9731 91.2415C58.0777 91.2415 53.2922 92.6932 49.2218 95.4129C45.1514 98.1327 41.9789 101.998 40.1055 106.521C38.2321 111.044 37.7419 116.021 38.697 120.822C39.652 125.623 42.0094 130.034 45.471 133.495C48.9326 136.957 53.3429 139.314 58.1443 140.269C62.9457 141.224 67.9224 140.734 72.4452 138.861C76.968 136.987 80.8337 133.815 83.5534 129.745C86.2732 125.674 87.7248 120.889 87.7248 115.993C87.7248 109.429 85.1171 103.133 80.4752 98.4911C75.8334 93.8493 69.5377 91.2415 62.9731 91.2415Z" fill="white"/>
<path d="M59.3996 86.0127C54.253 86.0112 49.2215 87.5359 44.9415 90.3941C40.6614 93.2523 37.3251 97.3156 35.3545 102.07C33.3839 106.825 32.8676 112.057 33.8707 117.104C34.8738 122.152 37.3514 126.79 40.9901 130.429C44.6288 134.069 49.2651 136.548 54.3127 137.553C59.3604 138.557 64.5926 138.042 69.3476 136.073C74.1026 134.104 78.1669 130.769 81.0264 126.49C83.8859 122.211 85.4121 117.18 85.4121 112.033C85.4039 105.136 82.661 98.5234 77.7847 93.6456C72.9084 88.7679 66.2968 86.0229 59.3996 86.0127V86.0127ZM59.3996 131.084C55.6295 131.086 51.9436 129.969 48.8082 127.875C45.6728 125.782 43.2288 122.805 41.7853 119.322C40.3418 115.839 39.9638 112.007 40.6989 108.309C41.4341 104.611 43.2494 101.214 45.9153 98.5486C48.5812 95.8827 51.9778 94.0674 55.6756 93.3322C59.3734 92.5971 63.2061 92.9752 66.689 94.4186C70.1718 95.8621 73.1483 98.3061 75.2419 101.442C77.3356 104.577 78.4522 108.263 78.4507 112.033C78.4446 117.084 76.4354 121.926 72.864 125.497C69.2926 129.069 64.4504 131.078 59.3996 131.084V131.084Z" fill="#0D1F3D"/>
<path d="M62.8804 108.544V96.5625H55.9189V108.544H43.9376V115.505H55.9189V127.487H62.8804V115.505H74.8617V108.544H62.8804Z" fill="#0D1F3D"/>
<path d="M56.6383 69.2118C71.372 69.2118 83.316 57.2678 83.316 42.5341C83.316 27.8005 71.372 15.8564 56.6383 15.8564C41.9046 15.8564 29.9606 27.8005 29.9606 42.5341C29.9606 57.2678 41.9046 69.2118 56.6383 69.2118Z" fill="#DC4847"/>
<path d="M56.6383 71.1299C50.9779 71.1299 45.4447 69.4515 40.7383 66.3067C36.0319 63.162 32.3637 58.6923 30.1976 53.4629C28.0315 48.2334 27.4647 42.479 28.569 36.9275C29.6733 31.3759 32.399 26.2764 36.4015 22.274C40.4039 18.2715 45.5034 15.5458 51.055 14.4415C56.6065 13.3372 62.3609 13.904 67.5904 16.0701C72.8198 18.2362 77.2895 21.9044 80.4342 26.6108C83.579 31.3172 85.2574 36.8504 85.2574 42.5108C85.2574 50.1011 82.2422 57.3804 76.8751 62.7476C71.5079 68.1147 64.2285 71.1299 56.6383 71.1299V71.1299ZM56.6383 17.7591C51.7428 17.7591 46.9574 19.2107 42.887 21.9305C38.8166 24.6502 35.6441 28.5159 33.7707 33.0387C31.8973 37.5615 31.4071 42.5382 32.3622 47.3396C33.3172 52.141 35.6746 56.5513 39.1362 60.0129C42.5978 63.4745 47.0081 65.8318 51.8095 66.7869C56.6108 67.7419 61.5876 67.2518 66.1104 65.3784C70.6331 63.505 74.4988 60.3325 77.2186 56.2621C79.9383 52.1917 81.39 47.4062 81.39 42.5108C81.39 35.9462 78.7822 29.6505 74.1404 25.0087C69.4985 20.3668 63.2028 17.7591 56.6383 17.7591Z" fill="white"/>
<path d="M53.0647 12.5771C47.9184 12.5771 42.8877 14.1032 38.6087 16.9623C34.3297 19.8215 30.9946 23.8853 29.0252 28.6399C27.0558 33.3944 26.5405 38.6262 27.5445 43.6737C28.5485 48.7211 31.0267 53.3575 34.6657 56.9965C38.3046 60.6355 42.941 63.1137 47.9884 64.1177C53.0359 65.1216 58.2677 64.6064 63.0223 62.6369C67.7768 60.6675 71.8406 57.3325 74.6998 53.0534C77.5589 48.7744 79.085 43.7437 79.085 38.5974C79.0768 31.6989 76.3327 25.0853 71.4548 20.2073C66.5768 15.3294 59.9632 12.5853 53.0647 12.5771V12.5771ZM53.0647 57.6562C49.2953 57.6562 45.6104 56.5384 42.4762 54.4442C39.342 52.35 36.8992 49.3734 35.4567 45.8909C34.0142 42.4083 33.6367 38.5762 34.3721 34.8792C35.1075 31.1821 36.9227 27.7862 39.5881 25.1208C42.2535 22.4553 45.6495 20.6402 49.3466 19.9048C53.0436 19.1694 56.8757 19.5468 60.3582 20.9893C63.8408 22.4319 66.8174 24.8747 68.9116 28.0089C71.0058 31.1431 72.1236 34.8279 72.1236 38.5974C72.1154 43.6496 70.1048 48.4925 66.5323 52.065C62.9599 55.6374 58.1169 57.648 53.0647 57.6562Z" fill="#0D1F3D"/>
<path d="M56.5455 35.117V23.1279H49.584V35.117H37.6027V42.0785H49.584V54.0598H56.5455V42.0785H68.5268V35.117H56.5455Z" fill="#0D1F3D"/>
</g>
<defs>
<clipPath id="clip0_816_679">
<rect width="250" height="250" fill="white"/>
</clipPath>
</defs>
</svg>
