<svg width="24" height="24" viewBox="0 0 24 24" fill="none" xmlns="http://www.w3.org/2000/svg">
<path fill-rule="evenodd" clip-rule="evenodd" d="M21.8005 6.14839C22.1421 6.48097 22.3883 6.89488 22.5145 7.3489C23.2411 10.1964 23.0732 14.6937 22.5286 17.6511C22.4024 18.1051 22.1562 18.519 21.8146 18.8516C21.473 19.1842 21.0479 19.4238 20.5815 19.5467C18.8743 20 12.003 20 12.003 20C12.003 20 5.1317 20 3.42446 19.5467C2.95811 19.4238 2.53295 19.1842 2.19133 18.8516C1.84971 18.519 1.60355 18.1051 1.47736 17.6511C0.74649 14.8159 0.946844 10.3159 1.46325 7.36264C1.58944 6.90862 1.8356 6.49471 2.17722 6.16212C2.51884 5.82954 2.944 5.58989 3.41035 5.46704C5.11759 5.01373 11.9889 5 11.9889 5C11.9889 5 18.8602 5 20.5674 5.45329C21.0337 5.57615 21.4589 5.81581 21.8005 6.14839ZM15.5021 12.5L9.80191 15.7143V9.28571L15.5021 12.5Z" fill="#F5333F"/>
</svg>
